<svg xmlns="http://www.w3.org/2000/svg" xmlns:xlink="http://www.w3.org/1999/xlink" width="24" height="24" preserveAspectRatio="xMidYMid meet" viewBox="0 0 24 24" style="-ms-transform: rotate(360deg); -webkit-transform: rotate(360deg); transform: rotate(360deg);"><g class="icon-tabler" fill="none" stroke="#D1D5DB" stroke-width="2" stroke-linecap="round" stroke-linejoin="round"><path d="M3 3l18 18"/><rect x="4" y="13" width="5" height="7" rx="2"/><path d="M17 13h1a2 2 0 0 1 2 2v1m-.589 3.417c-.361.36-.86.583-1.411.583h-1a2 2 0 0 1-2-2v-3"/><path d="M4 15v-3c0-2.21.896-4.21 2.344-5.658m2.369-1.638A8 8 0 0 1 20 12v3"/></g><rect x="0" y="0" width="24" height="24" fill="rgba(0, 0, 0, 0)" /></svg>