<svg id="Capa_1" enable-background="new 0 0 512 512" height="512" viewBox="0 0 512 512" width="512" xmlns="http://www.w3.org/2000/svg" xmlns:xlink="http://www.w3.org/1999/xlink"><linearGradient id="SVGID_1_" gradientUnits="userSpaceOnUse" x1="256" x2="256" y1="466" y2="46"><stop offset="0" stop-color="#5558ff"/><stop offset="1" stop-color="#00c0ff"/></linearGradient><g><g><path d="m497 286h-15v-105c0-8.284-6.716-15-15-15h-15v-30h45c8.284 0 15-6.716 15-15s-6.716-15-15-15c-8.45 0-67.527 0-75 0v-45c0-8.284-6.716-15-15-15s-15 6.716-15 15v45c-7.424 0-66.539 0-75 0-8.284 0-15 6.716-15 15s6.716 15 15 15h45v30h-15c-8.284 0-15 6.716-15 15v113.787l-21.213 21.213h-40.787v-105c0-8.284-6.716-15-15-15h-45v-105c0-8.284-6.716-15-15-15h-120c-8.284 0-15 6.716-15 15v105h-45c-8.284 0-15 6.716-15 15v240c0 8.284 6.716 15 15 15h332c90.981 0 165-74.019 165-165 0-8.284-6.716-15-15-15zm-105-150h30v30h-30zm-30 60h90v90h-90zm-167 60c8.284 0 15-6.716 15-15v-15h30v90h-90v-90h30v15c0 8.284 6.716 15 15 15zm-105-150h30v15c0 8.284 6.716 15 15 15s15-6.716 15-15v-15h30v90h-90zm-60 120h30v15c0 8.284 6.716 15 15 15s15-6.716 15-15v-15h30v90h-90zm317 210h-317v-90h287c3.979 0 7.794-1.581 10.606-4.394l25.607-25.606h127.959c-7.486 67.405-64.803 120-134.172 120z" fill="url(#SVGID_1_)"/></g></g></svg>