<svg id="Capa_1" enable-background="new 0 0 512 512" height="512" viewBox="0 0 512 512" width="512" xmlns="http://www.w3.org/2000/svg" xmlns:xlink="http://www.w3.org/1999/xlink"><linearGradient id="SVGID_1_" gradientUnits="userSpaceOnUse" x1="256" x2="256" y1="512" y2="0"><stop offset="0" stop-color="#5558ff"/><stop offset="1" stop-color="#00c0ff"/></linearGradient><g><g><path d="m436 60h-20.729l-25.854-51.708c-2.542-5.082-7.735-8.292-13.417-8.292h-240c-5.682 0-10.875 3.21-13.417 8.292l-25.854 51.708h-20.729c-8.284 0-15 6.716-15 15v90c0 8.284 6.716 15 15 15h17.468c.537 2.972 56.028 310.02 57.771 319.667 1.29 7.14 7.506 12.333 14.761 12.333h180c7.255 0 13.471-5.193 14.761-12.333 1.272-7.037 55.968-309.687 57.771-319.667h17.468c8.284 0 15-6.716 15-15v-90c0-8.284-6.716-15-15-15zm-290.729-30h221.459l15 30h-95.73c-8.284 0-15 6.716-15 15 0 8.271-6.729 15-15 15s-15-6.729-15-15c0-8.284-6.716-15-15-15h-95.729zm188.197 452h-154.936l-16.446-91h20.947c19.631 19.143 45.859 30 72.966 30s53.335-10.857 72.966-30h20.947zm21.867-121h-32.744c-4.247 0-8.295 1.8-11.139 4.954-14.565 16.151-34.259 25.046-55.452 25.046s-40.887-8.895-55.453-25.046c-2.844-3.154-6.892-4.954-11.139-4.954h-32.744l-16.264-90h49.009c4.247 0 8.295-1.8 11.139-4.954 14.565-16.151 34.258-25.046 55.452-25.046s40.887 8.895 55.453 25.046c2.844 3.154 6.892 4.954 11.139 4.954h49.008zm21.687-120h-48.056c-19.631-19.143-45.858-30-72.966-30s-53.335 10.857-72.966 30h-48.056l-11.024-61h264.093zm43.978-91h-330v-60h122.57c6.191 17.461 22.874 30 42.43 30s36.239-12.539 42.43-30h122.57zm-165 121c-24.813 0-45 20.187-45 45s20.187 45 45 45 45-20.187 45-45-20.187-45-45-45zm0 60c-8.271 0-15-6.729-15-15s6.729-15 15-15 15 6.729 15 15-6.729 15-15 15z" fill="url(#SVGID_1_)"/></g></g></svg>