<svg id="Capa_1" enable-background="new 0 0 512.001 512.001" height="512" viewBox="0 0 512.001 512.001" width="512" xmlns="http://www.w3.org/2000/svg" xmlns:xlink="http://www.w3.org/1999/xlink"><linearGradient id="SVGID_1_" gradientUnits="userSpaceOnUse" x1="256" x2="256" y1="512.001" y2="0"><stop offset="0" stop-color="#5558ff"/><stop offset="1" stop-color="#00c0ff"/></linearGradient><path d="m372.362.448-116.362 29.091-116.361-29.091c-5.111-1.276-10.519.22-14.245 3.946s-5.224 9.133-3.946 14.245l30 120c1.311 5.243 5.34 9.375 10.548 10.817 5.259 1.457 10.827-.065 14.61-3.849l25.284-25.284 23.439 46.878-44.075 236.046c-.713 3.819.083 7.767 2.222 11.01l60 91c2.776 4.209 7.48 6.743 12.523 6.743s9.747-2.534 12.523-6.743l60-91c2.139-3.244 2.936-7.191 2.222-11.01l-44.075-236.046 23.439-46.878 25.284 25.284c3.786 3.786 9.355 5.305 14.61 3.849 5.208-1.442 9.238-5.575 10.548-10.817l30-120c1.278-5.112-.22-10.519-3.946-14.245-3.723-3.725-9.129-5.224-14.242-3.946zm-198.235 105.213-17.511-70.044 70.044 17.511c-23.345 23.345-29.747 29.747-52.533 52.533zm126.016 297.139-44.143 66.951-44.143-66.95 41.602-222.8h5.083zm-38.413-252.799h-11.459l-26.019-52.039 31.748-31.748 31.749 31.749zm76.144-44.34c-22.886-22.886-29.29-29.29-52.534-52.534l70.044-17.511z" fill="url(#SVGID_1_)"/></svg>