<svg width="1440" height="888" xmlns="http://www.w3.org/2000/svg">
  <g fill="none" fill-rule="evenodd">
    <path d="M1151.077 619.632c12.555 80.062-291.927 132.284-554.002 95.84-262.074-36.444-382.302-178.763-257.244-254.596 125.057-75.834 798.69 78.694 811.246 158.756z" opacity=".505" fill="#F2F2F2"/>
    <path d="M447.216 87.446c3.511-1.741 8.192.278 6.24 4.88-2.092 4.93-9.825 4.99-14.193 4.893.437-.023 1.845-4.543 2.327-5.226 1.421-2.015 3.467-3.475 5.626-4.547zm-40.429 89.807c-1.24 1.06-.1.1 0 0zm44.51-66.923c2.1 1.589 2.198 4.396.482 6.297-2.045 2.264-5.775 2.183-8.56 1.964-1.26-.1-7.985-.63-6.39-1.72a5.482 5.482 0 0 0-.653.309 63.24 63.24 0 0 1-.465 1.595c.04.023.074.048.116.07-.046-.02-.078-.04-.118-.061a60.909 60.909 0 0 1-6.943 15.05c1.129-.44 2.297-.774 3.482-.923 3.51-.441 10.89 2.255 6.962 6.884-3.766 4.438-9.622-.318-13.893-.972-4.146 5.728-8.717 11.218-13.506 16.525.293.091.55.28.698.576 1.92-.966 3.922-2.348 5.7-2.722 2.565-.54 7.824-.87 9.761 1.403 2.383 2.795-.174 5.067-2.99 5.604-4.086.78-9.431-1.194-13.36-2.527-.45.079-.941-.051-1.234-.407a52.964 52.964 0 0 0-.258-.083c-4.85 5.281-9.886 10.388-14.891 15.383l.162-.009c1.305-.848 2.705-1.544 4.222-1.91 3.51-.848 7.64-.855 10.487 1.659 2.836 2.503 3.838 6.882.902 9.695-5.878 5.632-14.527-7.197-17.49-7.732-5.087 5.023-10.464 9.716-15.927 14.315a9.793 9.793 0 0 1 1.914-.387c5.354-.51 17.917 5.983 11.343 12.382-5.728 5.577-12.35-5.147-16.962-8.896-5.148 4.286-10.323 8.543-15.353 12.965 2.743-.722 5.393-.83 8.332.048 3.041.91 7.948 3.182 6.023 7.25-1.957 4.138-7.85 2.259-10.92.947-1.674-.715-5.03-3.131-7.976-4.148-8.027 7.506-14.98 15.772-20.247 25.508-3.287 6.078-5.783 12.572-7.54 19.246-1.123 4.26-3.333 11.415-2.894 16.959-2.1-11.096 1.714-24.425 5.82-34.346 3.775-9.122 9.423-17.132 16.036-24.342-1.656-4.94-15.614-12.06-7.265-16.654 4.433-2.43 8.97 1.596 9.937 5.86.664 2.931-.351 6.614-1.429 9.46a134.765 134.765 0 0 1 6.472-6.382c3.08-2.843 6.233-5.604 9.416-8.33-5.24-4.875-10.196-18.82-3.164-21.104 10.383-3.364 5.375 15.663 4.649 19.229-.206.012-.366-.05-.484-.182.058.327.126.676.208 1.028 6.093-5.19 12.276-10.277 18.256-15.59-.538-.394-1.394-1.9-2.066-2.701-1.518-1.807-2.97-3.694-4.03-5.808-1.676-3.34-3.29-8.669 1.156-10.636 4.837-2.144 7.131 3.883 7.163 7.478.022 2.487-.663 4.85-1.02 7.288-.112.76.315 4.187-.73 2.713.049.543.056.937.031 1.216a270.592 270.592 0 0 0 3.198-2.904 1.282 1.282 0 0 1-.094-.413c-.056-1.072 1.033-1.485 1.797-1.172a192.245 192.245 0 0 0 4.139-4.003c2.88-2.876 5.8-5.835 8.701-8.856-.629-.535-.378-1.276-.966-1.844-.587-.567-1.744-.88-2.434-1.406-1.737-1.324-3.176-3.254-4.217-5.154-1.718-3.139-3.938-9.724 1.088-11.223 5.18-1.547 7.805 4.791 8.136 8.755.064.768-.52 7.687-.965 10.2 5.367-5.615 10.647-11.44 15.43-17.367-1.449-.013-5.557-2.952-6.387-3.754-2.026-1.956-5.246-6.28-1.691-8.57 3.16-2.032 7.054.906 8.404 3.763.222.47 1.003 4.85 1.063 6.815a154.394 154.394 0 0 0 5.626-7.577 74.957 74.957 0 0 0 3.292-5.184c-.247-.138-.478-.38-.697-.68-5.27-.883-11.985-9.023-5.793-11.86 2.948-1.348 6.143 1.431 7.585 3.708.296.465.774 2.807 1.163 4.654 2.949-5.854 5.203-12.052 6.92-18.406-.46-.113-.848-.46-.899-1.057-2.558-1.443-4.577-2.645-6.362-5.422-1.109-1.725-3.105-5.666.156-6.625 4.243-1.249 6.905 5.168 7.25 8.33.041.366.04 1.434.025 2.412.147-.02.296-.018.442.008.976-3.935 1.756-7.92 2.377-11.912-2.316-.737-2.71-12.782-1.167-14.498 3.449-3.842 5.877 1.704 5.692 4.637-.22 3.457-1.803 6.602-3.688 9.394-.202.296-.144.282-.196-.13a.824.824 0 0 1-.2.462c.096 1.82.285 3.683.193 5.294-.263 4.611-.808 9.25-1.598 13.802a66.07 66.07 0 0 1-.659 3.295c1.863-1.572 4.373-2.969 5.355-3.405 2.55-1.133 6.478-2.357 9.009-.441zM322.896 270.029c.123 1.482.489 2.834 1.208 3.942a21.832 21.832 0 0 1-1.208-3.942z" fill="#C1DEE2" opacity=".2"/>
    <g fill="#F2F2F2">
      <path d="M262.418 731.456c0 21.287 1.68 38.544 24.228 38.544 22.548 0 24.227-17.257 24.227-38.544"/>
      <path d="M293.353 718.174a44.566 44.566 0 0 0-2.214 4.366c-.023-3.047.146-6.116.606-9.227.786-5.33 1.987-10.631 3.116-15.925.811-3.804.76-10.636 3.838-13.668.845-.655 1.048.63 1.048 1.188.01.118-.003-2.276-.822-1.86-4.87 2.516-6.449 10.426-8.008 14.386-2.275 5.78-4.21 11.69-5.008 17.704a39.656 39.656 0 0 0-.336 4.554c-.166-.405-.321-.814-.493-1.218a82.22 82.22 0 0 0-11.337-18.96c-1.165-1.46-15.809-15.865-16.955-13.66.113.32.35.586.71.797.022.024.023.011.01-.025.86 1.39 3.306 3.535 4.067 4.753 1.917 3.063 3.407 6.314 4.921 9.503 3.199 6.74 6.166 13.547 9.043 20.368.67 1.59 1.368 3.17 2.08 4.744-7.342-10.59-17.136-20.203-30.619-25.707 4.605 2.343 7.624 6.75 10.734 10.125 3.75 4.07 7.701 8.032 11.459 12.098 4.432 4.797 9.648 9.848 13.91 15.156 4.13 8.67 8.143 17.349 10.62 26.462-1.015-3.148-.08-7.5-.253-10.804-.138-2.63-.445-5.24-.866-7.844.52 1.175.97 2.35 1.172 3.444-.185-1.834-.399-3.656-.629-5.469.59-1.697 1.169-3.28 1.56-4.585 2.005-6.691 4.392-13.268 7.642-19.677 3.008-5.93 6.459-11.783 10.218-17.458 1.754-2.646 3.532-5.282 5.299-7.923 1.156-1.729 2.257-4.496 3.867-6.153-10.407 9.515-21.777 19.098-28.38 30.515"/>
    </g>
    <g fill="#F2F2F2">
      <path d="M1195.633 171.827c-2.983-9.95-9.987-17.74-17.259-24.876-14.154-13.893-21.767-22.483-26.812-42.805-2.967-11.953-5.987-24.618-15.397-33.29-6.852-6.315-18.644-11.62-27.808-7.098-14.096 8.414-17.882 25.68-16.46 41.142 1.762 19.164 10.713 30.98 27.91 38.038 9.69 3.975 16.13 9.22 21.39 18.36 4.208 7.31 6.661 16.461 11.948 23.086 7.905 9.905 17.796 14.307 29.989 12.662-11.42-21.011-24.763-42.22-40.856-59.91-1.507-1.78-10.392-8.587-8.6-11.618 1.974-3.337 11.096 9.2 11.031 9.124 4.677 5.368 9.005 11.073 13.254 16.833-.01.005-.023.008-.035.014a860.98 860.98 0 0 1 12.974 17.98 189.879 189.879 0 0 1 5.003 7.837c2.354 3.913 6.091 15.019 9.944 17.425.824.514 1.587.802 2.3.92 2.628 4.305 5.186 8.644 7.619 13.034 6.353 11.466 11.806 23.572 14.308 36.517.73 3.779.214 17.912 2.793 20.64 4.715 4.989 3.334-4.619 3.052-7.519-2.342-24.013-10.963-44.471-23.48-64.66 3.845-5.022 4.4-17.804 3.192-21.836M1034.13 183.43c4.972-5.857 16.922-6.851 24.23-6.459 9.044.485 18.334 2.687 26.938 5.349 14.173 4.384 27.946 12.386 40.429 20.13 1.504.934 20.037 12.08 18.397 14.035-1.626 1.938-19.82-11.3-23.874-13.583-8.653-4.87-16.588-10.63-26.126-13.847-9.875-3.33-20.32-4.65-30.704-4.559-1.333.012-5.68-.917-5.774 1.055-.092 1.928 7.102.922 8.37.934 5.24.048 10.51.54 15.675 1.449 9.677 1.7 18.774 5.127 27.062 10.383-2.313 5.377-7.856 7.856-13.672 6.51-5.026-1.163-9.925-4.032-14.847-4.861-3.39-.571-6.783-.231-10.07.724-8.67 2.52-13.67 7.681-23.203 4.09-7.472-2.814-19.97-12.927-12.83-21.35M1039.753 128h2.352c-.165-2.985-.38-5.964-.884-8.916-1.89-11.062-7.802-27.31-20.766-29.105-.478-.067-2.238-.078-4.369.046a7.94 7.94 0 0 0-3.333-.974c-11.039-.805-23.365 8.005-28.69 17.172-4.292 7.392-3.569 17.098-.918 24.95 1.776 5.258 5.65 12.753 12.112 12.826 8.084.092 8.473-9.792 8.63-15.57.208-7.683 1.189-14.375 7.308-19.611 1.426-1.22 2.985-2.293 4.425-3.496 2.256-1.883 4.749-3.811 5.04-6.926.4-4.297-2.052-5.07-5.796-4.272-.638.136-7.067 2.99-6.115.734.29-.69 1.352-1.235 2.692-1.645 3.466-.373 7.6-.805 8.79-.547 12.827 2.784 17.821 20.362 19.147 31.53.15 1.264.27 2.533.375 3.804z"/>
    </g>
    <g>
      <path d="M1100.955 378.676c5.184-6.084 8.692-13.542 8.106-21.897-1.69-24.076-35.203-18.78-41.722-6.628-6.52 12.15-5.745 42.974 2.68 45.145 3.36.866 10.519-1.255 17.804-5.646L1083.25 422h27l-9.295-43.324z" fill="#B28B67"/>
      <path d="M1064.79 355.607c.267-1.575.92-3.325 1.448-4.815.68-1.92 1.71-3.653 2.842-5.285a39.947 39.947 0 0 1 7.513-8.152c5.158-4.207 11.723-6.634 18.18-5.846a18.662 18.662 0 0 1 9.118 3.711c2.433 1.87 4.774 4.623 7.925 4.82 3.43.216 6.572-2.81 9.322-4.68 3.1-2.107 6.399-3.642 10.022-4.239 6.07-1 11.773 1.052 15.957 6.032 4.452 5.3 7.688 13.072 4.764 20.095-.543 1.305-1.242 2.406-2.246 3.318-.92.836-2.325 1.726-2.698 3.062-.397 1.421.787 3.254 1.246 4.536.658 1.836 1.198 3.764 1.006 5.76-.315 3.278-2.375 6.407-4.55 8.562-2.214 2.193-4.939 3.45-7.849 4.03-1.943.386-3.929.6-5.904.455-.98-.072-1.845-.345-2.795-.561-.924-.211-1.44.034-2.224.54-3.64 2.355-7.555 3.265-11.758 2.915-3.548-.295-7.637-1.155-10.531-3.586-3.214-2.7-3.15-6.423-2.394-10.4-.801.397-3.018.643-1.694-.94.525-.627 1.517-.882 2.19-1.25.784-.43 1.58-.985 2.189-1.685 2.458-2.828-.025-8.583-3.114-9.531-4.591-1.409-5.619 5.083-8.896 6.762-1.884.966-3.855-.354-5.267-1.701-1.89-1.806-3.18-4.197-4.292-6.63-.917-2.005-1.77-4.037-2.704-6.031-.436-.932-1.946-3.564-1.188-4.617-3.288-.656-6.95.71-9.782 2.502-1.17.74-2.062 1.558-2.687 2.865-.133.28-.424 1.113-.79 1.148-.68.063-.426-.769-.36-1.164" fill="#191847"/>
      <path d="M1140.97 517c-2.026 27.699-132.512 109.247-133.273 111.535-.338 1.017 13.2 33.163 40.616 96.437l-11.407 4.441c-42.05-67.012-61.996-104.088-59.836-111.228 3.093-10.223 36.84-43.853 101.243-100.89l62.657-.295z" fill="#B28B67"/>
      <path d="M1045.31 710.682l-18.622 6.792c-39.269-44.393-54.661-81.022-51.855-99.684 1.871-12.442 35.502-46.016 100.893-100.722h66.58c-2.272 64.146-123.216 111.711-124.834 114.445-1.618 2.733 14.302 29.505 27.839 79.17z" fill="#2F3676"/>
      <path d="M1052.301 722.588c2.449 2.828 3.966 5.046 4.551 6.655.694 1.907 1.387 4.805 2.08 8.695l-59.951 21.82c-3.423-4.555-3.53-7.648-.322-9.278a355.162 355.162 0 0 0 7.962-4.151l23.468-22.593a1 1 0 0 1 1.43.045l3.455 3.768c3.632.31 6.42.113 8.362-.594 1.622-.591 3.637-2.083 6.043-4.476a2 2 0 0 1 2.922.109z" fill="#E4E4E4"/>
      <path fill="#997659" d="M1125.967 517l58.128 139.82 57.13 118.206h-13.479L1080.276 517z"/>
      <path d="M1241.909 769.287c1.333 3.495 2 6.099 2 7.811 0 2.029-.34 4.989-1.02 8.881h-63.798c-1.658-5.451-.701-8.394 2.87-8.829 3.573-.434 6.54-.827 8.903-1.177l29.779-13.204a1 1 0 0 1 1.329.532l1.957 4.722c3.307 1.534 5.994 2.301 8.061 2.301 1.727 0 4.13-.713 7.21-2.139a2 2 0 0 1 2.709 1.102z" fill="#E4E4E4"/>
      <path d="M1236.066 750.47l-29.95 5.628c-23.158-34.112-120.073-173.984-130.7-239.098h66.677c35.485 47.07 71.9 198.794 93.973 233.47z" fill="#191847"/>
      <g>
        <path d="M1017.06 411.56l-44.006-6.719c-8.738-5.014-16.797-8.445-24.178-10.294-2.084-.096-5.415.598-.545 4.765 4.87 4.168 9.805 8.77 8.886 10.933-.92 2.164-5.502 1.274-6.323 4.612-.547 2.225 6.907 2.716 22.36 1.473l35.544 14.674 8.261-19.444zm14.175 73.792l-31.875 31.043c-9.274 3.95-16.872 8.312-22.796 13.085-1.332 1.604-2.783 4.678 3.484 3.3 6.267-1.376 12.92-2.542 14.097-.508 1.178 2.034-2.294 5.152-.118 7.814 1.451 1.775 6.333-3.873 14.645-16.941l33.143-19.512-10.58-18.28z" fill="#B28B67"/>
        <path d="M1076.573 407.444c-14.29 38.74-38.393 70.283-74.928 104.688l17.791 15.13c42.935-23.169 65.417-36.667 72.374-72.348 1.746-8.955-.021-36.472-.268-51.045l-14.97 3.575z" fill="#41156D"/>
        <path d="M1147.538 519.848l-85.782 12.056c11.117-61.887 15.337-103.883 12.66-125.988-.136-1.127 1.665-3.4 2.621-3.27 6.994.951 14.094-.77 21.299-5.163 24.925 29.79 37.607 68.999 49.202 122.365z" fill="#F2F2F2"/>
        <path d="M1091.023 398.565c-24.56 3.656-63.825 13.745-111.906 5.467l-1.358 23.295c37.91 17.437 75.552 29.782 106.06 22.99-5.335 59.25 1.882 106.125 31.461 101.968l45.739-6.428c.415-49.754-28.173-114.64-50.663-146.234-.859-1.207-2.643-3.458-6.032-2.981l-13.29 1.867-.01.056z" fill="#639"/>
      </g>
    </g>
    <g transform="translate(553 271)">
      <rect fill="#F2F2F2" width="335" height="346" rx="8"/>
      <rect fill="#FFF" x="39" y="47" width="256" height="256" rx="8"/>
      <path d="M8 0h319a8 8 0 0 1 8 8v19H0V8a8 8 0 0 1 8-8z" fill="#744C9E"/>
      <g transform="translate(9 10)" fill="#F2F2F2">
        <circle cx="4" cy="4" r="4"/>
        <circle cx="16" cy="4" r="4"/>
        <circle cx="28" cy="4" r="4"/>
      </g>
      <path d="M167.5 80C115.31 80 73 122.309 73 174.5s42.31 94.5 94.5 94.5c52.191 0 94.5-42.309 94.5-94.5S219.691 80 167.5 80zm-74.194 95.485l73.209 73.21c-40.2-.525-72.686-33.01-73.21-73.21zm90.803 71.354L95.16 157.891c7.542-32.986 37.066-57.598 72.339-57.598 24.657 0 46.5 12.029 59.995 30.535l-10.275 9.066c-10.946-15.698-29.132-25.97-49.72-25.97-26.213 0-48.535 16.65-56.972 39.95l77.599 77.598c18.844-6.824 33.338-22.732 38.192-42.434h-32.165V174.5H241.707c0 35.273-24.612 64.797-57.598 72.34z" fill="#744C9E" fill-rule="nonzero"/>
    </g>
    <g>
      <path d="M309.262 370.49c-4.608-5.409-7.726-12.037-7.205-19.465 1.501-21.4 31.292-16.692 37.086-5.891 5.795 10.801 5.107 38.199-2.383 40.13-2.986.77-9.349-1.117-15.825-5.02L325 409h-24l8.262-38.51z" fill="#B28B67"/>
      <path d="M349.776 330.16c-.497-1.747-1.834-3.242-3.636-3.686a4.789 4.789 0 0 0-1.337-.133c-.161.006-.207.053-.282-.06-.056-.083-.057-.288-.08-.386a7.28 7.28 0 0 0-.272-.901c-.377-1.002-1.01-1.89-1.774-2.637-1.428-1.398-3.358-2.363-5.363-2.537-1.098-.096-2.187.083-3.225.44-.537.184-1.058.415-1.565.669-.153.077-.648.452-.801.427-.17-.026-.51-.447-.648-.553-1.7-1.305-3.802-1.818-5.921-1.803-2.392.018-4.695.138-6.69 1.596a13.38 13.38 0 0 0-1.208 1.002 10.55 10.55 0 0 0-.91.96c-.18.218-.15.29-.4.137-.96-.583-2.073-.856-3.194-.718a7.146 7.146 0 0 0-1.928.544c-.209.09-.693.447-.916.45-.222.004-.7-.327-.927-.411a7.6 7.6 0 0 0-3.853-.357c-1.335.217-2.646.75-3.777 1.485-.544.355-1.019.747-1.4 1.273-.165.227-.313.468-.5.679-.11.123-.325.25-.384.406.035-.094-1.46-.67-1.601-.707a3.944 3.944 0 0 0-2.253.086c-1.384.455-2.574 1.477-3.552 2.524a10.086 10.086 0 0 0-1.315 1.766c-.18.303-.343.615-.492.934-.073.154-.12.347-.216.486-.124.18-.206.183-.43.261-1.132.397-2.164 1.069-2.95 1.976a6.803 6.803 0 0 0-1.528 3.24c-.013.07-.02.36-.062.398-.056.053-.284.03-.37.04a7.787 7.787 0 0 0-.887.156 7.321 7.321 0 0 0-1.56.56c-1.933.958-3.316 2.751-3.993 4.77-.71 2.119-.698 4.546.15 6.625.138.335.301.661.493.97.117.189.155.19.079.388-.085.22-.24.435-.342.651a9.352 9.352 0 0 0-.706 2.215c-.24 1.252-.358 2.567-.122 3.829.11.585.3 1.158.591 1.68a4.819 4.819 0 0 0 .842 1.099c.064.063.149.118.204.19.134.172.162.03.093.283-.097.354-.316.703-.45 1.048-.139.355-.264.715-.378 1.078a15.906 15.906 0 0 0-.55 2.248c-.236 1.463-.195 3.022.497 4.365.296.574.72 1.078 1.236 1.47.252.192.525.357.811.493.147.07.335.1.402.242.073.153-.035.457-.06.628-.212 1.488-.319 3.05.124 4.51a6.23 6.23 0 0 0 2.47 3.314c2.259 1.523 5.305 1.437 7.679.218a8.062 8.062 0 0 0 1.714-1.178c1.316 1.77 4.022 1.714 5.944 1.21 2.395-.629 4.317-2.294 5.424-4.482 1.514 1.843 4.691 1.245 5.74-.754.258-.49.41-1.029.485-1.575.04-.287.015-.576.044-.86.038-.364.28-.716.42-1.067.27-.683.44-1.389.447-2.125.003-.385-.045-.76-.082-1.141-.033-.344.062-.664.117-1.003-.615.101-1.363-.064-1.942-.242-.567-.175-1.1-.635-1.5-1.056-.93-.976-1.5-2.256-1.888-3.53-.854-2.794-.504-6.148 2.308-7.682 1.31-.715 5.233-.712 6.793-.36 1.64.372 3.5 3.991 3.592 4.332.056.21.028.47.221.611.425.308 1.126-.227 1.44-.491.54-.456.927-1.063 1.26-1.678a20.755 20.755 0 0 0 1.731-4.243c.32-1.13.524-2.296.942-3.398.416-1.097 1.071-2.077 2.09-2.698 1.11-.676 2.38-1.032 3.597-1.456 1.207-.421 2.393-.935 3.328-1.828.206-.197.405-.405.57-.636.131-.183.26-.532.46-.648.31-.18.76.288 1.029.458 1.32.839 2.422 2.008 3.31 3.286.884 1.27 1.609 2.493 2.198 3.912.437 1.053.71 2.4 1.478 3.263.343.385 2.894.618 3.72.282.826-.336 1.752-1.21 2.03-1.756.283-.56.351-1.176.23-1.789-.072-.36-.217-.697-.297-1.051-.067-.298-.128-.58-.273-.852a2.1 2.1 0 0 0-1.309-1.043 6.147 6.147 0 0 0 1.414-1.917c.35-.754.648-1.671.732-2.499.068-.672-.037-1.368-.405-1.946-.386-.606-1.07-1-1.662-1.379a10.807 10.807 0 0 0 2.313-2.519c1.237-1.85 2.002-4.184 1.374-6.392z" fill="#191847"/>
      <path d="M235 531h115c8.837 0 16 7.163 16 16v92c0 8.837-7.163 16-16 16H235c-8.837 0-16-7.163-16-16v-92c0-8.837 7.163-16 16-16zm16 28a4 4 0 0 0-4 4v60a4 4 0 0 0 4 4h83a4 4 0 0 0 4-4v-60a4 4 0 0 0-4-4h-83z" fill="#C5CFD6"/>
      <path d="M465.159 650c-19.716-24.076-33.056-41.925-40.02-53.546-11.926-19.9-21.686-37.606-24.766-44.37-7.345-16.129 16.909-23.681 22.398-16.158 8.308 11.386 26.051 47.217 53.229 107.491L465.159 650z" fill="#B28B67"/>
      <path d="M424.758 643l-36.693-92.363c-7.848-16.837 30.05-27.905 35.818-20.07 13.094 17.79 44.216 87.967 48.117 93.267L424.758 643z" fill="#191847"/>
      <path d="M327.033 624.477c7.148-10.426 33.146-45.503 47.306-60.016 4.07-4.17 8.04-8.173 11.795-11.904 11.162-11.087 33.39 7.549 22.248 17.648-27.747 25.15-68.23 59.102-71.613 62.13-4.741 4.242-14.228-1.306-9.736-7.858z" fill="#B28B67"/>
      <path d="M328.705 619.767c-2.463 2.027-4.064 3.683-4.806 4.967-.901 1.562-1.957 3.99-3.166 7.287l48.845 28.201c3.692-3.463 4.267-6.152 1.726-8.065a312.366 312.366 0 0 1-6.292-4.842l-16.86-23.228a1 1 0 0 0-1.42-.205l-3.502 2.697c-3.214-.28-5.612-.877-7.195-1.791-1.286-.743-2.762-2.287-4.428-4.634a2 2 0 0 0-2.902-.387zM456.678 646.402c-1.119 2.986-1.678 5.221-1.678 6.704 0 1.803.3 4.434.901 7.894h56.402c1.466-4.845.62-7.461-2.538-7.848a312.366 312.366 0 0 1-7.87-1.046l-26.215-11.687a1 1 0 0 0-1.332.532l-1.685 4.088c-2.923 1.364-5.299 2.046-7.126 2.046-1.485 0-3.536-.6-6.153-1.8a2 2 0 0 0-2.706 1.117z" fill="#E4E4E4"/>
      <path d="M374.862 555.25c-30.497-4.968-50.924-8.366-61.281-10.192-29.524-5.206-38.133-21.093-33.043-55.756h54.396c7.199 2.079 37.276 14.935 90.234 38.57 9.528 4.73 7.753 18.675 6.012 23.27-.071.187-16.134 27.711-48.188 82.57l-44.498-28.347 36.452-46.775c.962-1.939.934-3.052-.084-3.34z" fill="#3F4799"/>
      <g>
        <path d="M377.456 389.34l37.904-11.378c7.071-5.504 13.74-9.529 20.009-12.073 1.823-.344 4.84-.144 1.07 4.134-3.772 4.278-7.547 8.948-6.47 10.742 1.077 1.794 5 .441 6.136 3.283.757 1.894-5.743 3.251-19.5 4.07l-29.471 17.345-9.678-16.122zm-3.35 66.828l31.9 23.424c8.65 2.334 15.879 5.239 21.683 8.713 1.371 1.25 3.028 3.78-2.658 3.343-5.686-.438-11.687-.642-12.472 1.298-.785 1.94 2.657 4.259 1.07 6.876-1.057 1.744-6.052-2.63-14.986-13.124l-31.588-13.099 7.052-17.43z" fill="#B28B67"/>
        <path d="M324.56 393.087c17.371 32.39 42.49 57.218 78.906 83.029l-13.789 15.547c-40.66-15.11-62.118-24.227-72.656-54.828-2.645-7.68-4.493-32.164-6.08-45.046l13.62 1.298z" fill="#41156D"/>
        <path d="M276 501h77c-17.442-53.195-26.352-89.704-26.73-109.528-.02-1.011-1.886-2.792-2.711-2.559-6.04 1.706-12.502 1.068-19.387-1.913-18.255 29.358-24.567 65.505-28.172 114z" fill="#F2F2F2"/>
        <path d="M310.743 387.047c22.071.181 57.881 4.212 99.18-9.047L414 398.373c-31.213 20.075-62.82 35.626-90.514 33.418 12.026 51.586 11.472 93.815-15.079 93.815h-41.056c-6.52-43.822 10.617-104.582 26.505-135.23.607-1.17 1.898-3.376 4.941-3.376h11.93l.016.047z" fill="#639"/>
      </g>
    </g>
  </g>
</svg>
